<svg width="222" height="137" viewBox="0 0 222 137" fill="none" xmlns="http://www.w3.org/2000/svg">
<path d="M134.788 45.4242C134.788 45.4242 169.507 5.09242 165.773 5.09242C162.039 5.09242 64.1993 0.384473 65.3977 5.09242C66.5961 9.80037 35.6335 45.4242 35.6335 45.4242H134.788ZM134.788 45.4242L122.393 62.7979M134.788 45.4242H218.449M72.8163 132.293C72.8163 132.293 165.773 136.316 165.773 132.293C165.773 128.27 191.385 104.371 185.914 104.371C180.443 104.371 92.7356 104.371 92.7356 104.371M72.8163 132.293L92.7356 104.371M72.8163 132.293H36.4081H0M92.7356 104.371L107.564 83.5843M122.393 62.7979C122.393 62.7979 151.853 63.2142 157.417 64.4126C162.981 65.611 146.374 80.334 142.534 84.2048C138.694 88.0755 107.564 83.5843 107.564 83.5843M122.393 62.7979L107.564 83.5843M185.914 5.09242C185.914 9.80037 153.379 38.4656 159.576 36.1169C165.773 33.7681 223.756 5.09242 218.449 5.09242C213.142 5.09242 185.914 0.384472 185.914 5.09242Z" stroke="#F8F8F8" stroke-width="5"/>
</svg>
