<svg width="52" height="35" viewBox="0 0 52 35" fill="none" xmlns="http://www.w3.org/2000/svg">
<path d="M16.9614 12.5659V18.1338C16.7974 18.3525 16.5479 18.626 16.2129 18.9541C15.8848 19.2822 15.4233 19.5728 14.8286 19.8257C14.2339 20.0786 13.4546 20.2051 12.4907 20.2051C11.7183 20.2051 11.0107 20.0752 10.3682 19.8154C9.73242 19.5557 9.18213 19.166 8.71729 18.6465C8.25928 18.1201 7.90381 17.4673 7.65088 16.688C7.39795 15.9019 7.27148 14.9824 7.27148 13.9297V11.1304C7.27148 10.0845 7.37744 9.16846 7.58936 8.38232C7.80127 7.59619 8.11572 6.94336 8.53271 6.42383C8.95654 5.9043 9.47949 5.51465 10.1016 5.25488C10.7305 4.99512 11.4619 4.86523 12.2959 4.86523C13.2598 4.86523 14.0801 5.04639 14.7568 5.40869C15.4336 5.771 15.9565 6.29395 16.3257 6.97754C16.7017 7.66113 16.9136 8.48145 16.9614 9.43848H15.0747C15.0269 8.82324 14.897 8.29688 14.6851 7.85938C14.4731 7.41504 14.1724 7.07666 13.7827 6.84424C13.3931 6.60498 12.8975 6.48535 12.2959 6.48535C11.7217 6.48535 11.2363 6.58105 10.8398 6.77246C10.4434 6.96387 10.1187 7.25098 9.86572 7.63379C9.61963 8.0166 9.43848 8.49854 9.32227 9.07959C9.21289 9.66064 9.1582 10.3374 9.1582 11.1099V13.9297C9.1582 14.7227 9.23682 15.4131 9.39404 16.001C9.55127 16.5889 9.77344 17.0742 10.0605 17.457C10.3545 17.8398 10.7065 18.127 11.1167 18.3184C11.5269 18.5029 11.9883 18.5952 12.501 18.5952C13.082 18.5952 13.54 18.5337 13.875 18.4106C14.21 18.2876 14.4663 18.1475 14.644 17.9902C14.8286 17.833 14.9756 17.7065 15.085 17.6108V14.1655H12.3472V12.5659H16.9614ZM19.3916 14.9858V13.9297C19.3916 13.0684 19.501 12.313 19.7197 11.6636C19.9385 11.0073 20.2427 10.4604 20.6323 10.0229C21.022 9.58545 21.4766 9.25732 21.9961 9.03857C22.5156 8.81299 23.0728 8.7002 23.6675 8.7002C24.2759 8.7002 24.8398 8.81299 25.3594 9.03857C25.8789 9.25732 26.3335 9.58545 26.7231 10.0229C27.1196 10.4604 27.4272 11.0073 27.646 11.6636C27.8647 12.313 27.9741 13.0684 27.9741 13.9297V14.9858C27.9741 15.8472 27.8647 16.606 27.646 17.2622C27.4272 17.9116 27.123 18.4551 26.7334 18.8926C26.3438 19.3301 25.8892 19.6582 25.3696 19.877C24.8501 20.0957 24.2896 20.2051 23.688 20.2051C23.0864 20.2051 22.5259 20.0957 22.0063 19.877C21.4868 19.6582 21.0288 19.3301 20.6323 18.8926C20.2427 18.4551 19.9385 17.9116 19.7197 17.2622C19.501 16.606 19.3916 15.8472 19.3916 14.9858ZM21.2065 13.9297V14.9858C21.2065 15.5942 21.2681 16.1274 21.3911 16.5854C21.5142 17.0435 21.6885 17.4263 21.9141 17.7339C22.1396 18.0415 22.4028 18.2739 22.7036 18.4312C23.0044 18.5815 23.3325 18.6567 23.688 18.6567C24.0981 18.6567 24.457 18.5815 24.7646 18.4312C25.0791 18.2739 25.3389 18.0415 25.5439 17.7339C25.749 17.4263 25.9028 17.0435 26.0054 16.5854C26.1079 16.1274 26.1592 15.5942 26.1592 14.9858V13.9297C26.1592 13.3213 26.0977 12.7915 25.9746 12.3403C25.8516 11.8823 25.6772 11.4995 25.4517 11.1919C25.2261 10.8774 24.9595 10.645 24.6519 10.4946C24.3511 10.3374 24.0229 10.2588 23.6675 10.2588C23.3188 10.2588 22.9941 10.3374 22.6934 10.4946C22.3926 10.645 22.1294 10.8774 21.9038 11.1919C21.6851 11.4995 21.5142 11.8823 21.3911 12.3403C21.2681 12.7915 21.2065 13.3213 21.2065 13.9297Z" fill="#20CC76"/>
<path d="M51.0607 24.0607C51.6464 23.4749 51.6464 22.5251 51.0607 21.9393L41.5147 12.3934C40.9289 11.8076 39.9792 11.8076 39.3934 12.3934C38.8076 12.9792 38.8076 13.9289 39.3934 14.5147L47.8787 23L39.3934 31.4853C38.8076 32.0711 38.8076 33.0208 39.3934 33.6066C39.9792 34.1924 40.9289 34.1924 41.5147 33.6066L51.0607 24.0607ZM0 24.5L50 24.5V21.5L0 21.5L0 24.5Z" fill="#20CC76"/>
</svg>
