<svg width="35" height="35" viewBox="0 0 35 35" fill="none" xmlns="http://www.w3.org/2000/svg">
<path d="M17.5 0C12.8587 0 8.40752 1.84374 5.12563 5.12563C1.84374 8.40752 0 12.8587 0 17.5C0 22.1413 1.84374 26.5925 5.12563 29.8744C8.40752 33.1563 12.8587 35 17.5 35C22.1413 35 26.5925 33.1563 29.8744 29.8744C33.1563 26.5925 35 22.1413 35 17.5C35 12.8587 33.1563 8.40752 29.8744 5.12563C26.5925 1.84374 22.1413 0 17.5 0V0ZM22.1127 31.7669H21.9771C21.8752 31.7726 21.7732 31.7575 21.6774 31.7224C21.5816 31.6873 21.494 31.6329 21.42 31.5627C21.3516 31.4904 21.2983 31.4052 21.2632 31.312C21.2282 31.2189 21.2121 31.1197 21.2158 31.0202V28.9698C21.2246 28.2887 21.2304 27.599 21.2304 26.9048C21.228 26.3972 21.1539 25.8925 21.0102 25.4056C20.8741 24.9135 20.5998 24.4707 20.2198 24.1296C21.2362 24.0315 22.2354 23.8005 23.1919 23.4427C23.9987 23.1359 24.7284 22.656 25.3298 22.0369C25.9233 21.4142 26.3652 20.6617 26.6204 19.8406C26.9309 18.8351 27.0786 17.7865 27.0579 16.7344C27.0636 15.9998 26.9351 15.2703 26.6788 14.5819C26.4183 13.888 26.0244 13.2519 25.5194 12.7094C25.6284 12.4358 25.7076 12.1512 25.7556 11.8606C25.8037 11.569 25.8285 11.2744 25.8285 10.9798C25.8285 10.6006 25.7848 10.2215 25.6973 9.8525C25.6178 9.47407 25.5101 9.10213 25.375 8.73979C25.3234 8.71968 25.2685 8.70977 25.2131 8.71063H25.0527C24.7173 8.71354 24.3877 8.76896 24.0698 8.8725C23.7196 8.97472 23.377 9.10142 23.0446 9.25167C22.714 9.39985 22.3921 9.56686 22.0806 9.75187C21.7671 9.93708 21.49 10.115 21.245 10.2798C18.7917 9.59602 16.1981 9.59602 13.7448 10.2798C13.4712 10.0969 13.193 9.92085 12.9106 9.75187C12.5947 9.56532 12.2674 9.39874 11.9306 9.25313C11.5991 9.0979 11.2552 8.97058 10.9025 8.8725C10.5909 8.76954 10.2653 8.71495 9.93708 8.71063H9.77667C9.72181 8.70985 9.66732 8.71976 9.61625 8.73979C9.47926 9.10263 9.36719 9.4744 9.28083 9.8525C9.20208 10.2229 9.16417 10.6006 9.16271 10.9798C9.16271 11.2744 9.1875 11.569 9.23708 11.8606C9.28521 12.1508 9.3625 12.4352 9.47042 12.7094C8.96669 13.2526 8.5743 13.8892 8.31542 14.5833C8.0577 15.2715 7.92772 16.001 7.93188 16.7358C7.91148 17.7823 8.05516 18.8255 8.35771 19.8275C8.62167 20.6485 9.06208 21.4025 9.64688 22.0383C10.2521 22.6538 10.9813 23.1321 11.7848 23.4442C12.7371 23.8088 13.7346 24.0421 14.7496 24.1383C14.4662 24.3952 14.2414 24.71 14.0904 25.0615C13.9468 25.409 13.8488 25.7737 13.7987 26.1465C13.2637 26.4027 12.6785 26.5371 12.0852 26.5402C11.5343 26.5623 10.9905 26.4091 10.5321 26.1027C10.0923 25.7768 9.71988 25.3687 9.43542 24.901C9.30811 24.7046 9.16574 24.5184 9.00958 24.344C8.84485 24.1606 8.66322 23.9931 8.46708 23.8438C8.27377 23.6993 8.06186 23.5816 7.83708 23.4938C7.61593 23.3968 7.3771 23.3466 7.13563 23.3465C7.07729 23.3479 7.01896 23.3538 6.96062 23.361C6.88096 23.3608 6.80158 23.3706 6.72438 23.3902C6.65652 23.408 6.59233 23.4376 6.53479 23.4777C6.50863 23.4921 6.48675 23.5132 6.47138 23.5388C6.45601 23.5644 6.4477 23.5937 6.44729 23.6235C6.45342 23.6937 6.47488 23.7617 6.51015 23.8227C6.54543 23.8837 6.59367 23.9362 6.65146 23.9765C6.78708 24.0844 6.89938 24.1675 6.98979 24.2258L7.03354 24.2565C7.2275 24.4067 7.41417 24.5685 7.59063 24.7421C7.75396 24.885 7.90125 25.0469 8.02813 25.2233C8.15938 25.3969 8.27313 25.5821 8.365 25.779C8.47146 25.9744 8.58375 26.199 8.70188 26.4542C8.97604 27.1454 9.46313 27.7302 10.0931 28.124C10.7537 28.4783 11.4946 28.6548 12.2456 28.6358C12.4994 28.6358 12.7546 28.6213 13.0069 28.5921C13.2577 28.5513 13.5071 28.509 13.7579 28.4594V31.0012C13.7625 31.1037 13.7453 31.206 13.7076 31.3014C13.6699 31.3969 13.6125 31.4832 13.5392 31.5549C13.4658 31.6267 13.3781 31.6821 13.2819 31.7176C13.1856 31.7531 13.083 31.7679 12.9806 31.761H12.8902C9.48943 30.6624 6.59264 28.3857 4.72145 25.3409C2.85027 22.2961 2.12766 18.6832 2.68374 15.1529C3.23983 11.6226 5.03807 8.40686 7.75465 6.08469C10.4712 3.76253 13.9276 2.48656 17.5015 2.48656C21.0753 2.48656 24.5317 3.76253 27.2483 6.08469C29.9648 8.40686 31.7631 11.6226 32.3192 15.1529C32.8753 18.6832 32.1526 22.2961 30.2815 25.3409C28.4103 28.3857 25.5135 30.6624 22.1127 31.761V31.7683V31.7669Z" fill="#F8F8F8"/>
</svg>
