<svg width="47" height="35" viewBox="0 0 47 35" fill="none" xmlns="http://www.w3.org/2000/svg">
<g clip-path="url(#clip0_3_41)">
<path d="M43.7805 35H2.94718C2.15725 35 1.47366 34.7114 0.896403 34.1341C0.319146 33.5569 0.0305176 32.8733 0.0305176 32.0833V2.91667C0.0305176 2.09635 0.311551 1.40516 0.873617 0.843099C1.43568 0.281033 2.12687 0 2.94718 0H43.7805C44.6008 0 45.292 0.281033 45.8541 0.843099C46.4162 1.40516 46.6972 2.09635 46.6972 2.91667V32.0833C46.6972 32.8733 46.4162 33.5569 45.8541 34.1341C45.292 34.7114 44.6008 35 43.7805 35ZM43.7805 4.375C43.7805 3.98003 43.6362 3.63824 43.3476 3.34961C43.0589 3.06098 42.7172 2.91667 42.3222 2.91667H39.4055C38.7979 2.91667 38.3194 2.93945 37.97 2.98503C37.6206 3.0306 37.1648 3.1977 36.6028 3.48633C36.0407 3.77496 35.4711 4.2079 34.8938 4.78516L23.3639 16.3151L11.8339 4.78516C11.2566 4.2079 10.687 3.77496 10.1249 3.48633C9.56285 3.1977 9.11472 3.0306 8.78052 2.98503C8.44632 2.93945 7.96021 2.91667 7.32218 2.91667H4.40552C4.01055 2.91667 3.66876 3.06098 3.38013 3.34961C3.0915 3.63824 2.94718 3.98003 2.94718 4.375V30.625C2.94718 31.02 3.0915 31.3618 3.38013 31.6504C3.66876 31.939 4.01055 32.0833 4.40552 32.0833H7.32218C7.71715 32.0833 8.05895 31.939 8.34758 31.6504C8.6362 31.3618 8.78052 31.02 8.78052 30.625V29.1211L18.3964 19.5508L21.7688 22.9232C22.2245 23.3789 22.7562 23.4852 23.3639 23.2422C23.9715 23.4852 24.5032 23.3789 24.9589 22.9232L28.3313 19.5508L37.9472 29.1211V30.625C37.9472 31.02 38.0915 31.3618 38.3801 31.6504C38.6688 31.939 39.0106 32.0833 39.4055 32.0833H42.3222C42.7172 32.0833 43.0589 31.939 43.3476 31.6504C43.6362 31.3618 43.7805 31.02 43.7805 30.625V4.375ZM37.9472 25.0195L30.3821 17.4544L37.9472 9.9349V25.0195ZM8.78052 9.9349L16.3456 17.4544L8.78052 25.0195V9.9349Z" fill="#F8F8F8"/>
</g>
<defs>
<clipPath id="clip0_3_41">
<rect width="46.72" height="35" fill="white"/>
</clipPath>
</defs>
</svg>
