<svg width="35" height="35" viewBox="0 0 35 35" fill="none" xmlns="http://www.w3.org/2000/svg">
<path d="M7.94647 35V11.3855H0.444735V35H7.94647ZM4.19657 8.15945C6.81256 8.15945 8.44089 6.34613 8.44089 4.08009C8.39215 1.76295 6.81266 -3.05176e-05 4.24622 -3.05176e-05C1.68017 -3.05176e-05 0.00213623 1.76299 0.00213623 4.08009C0.00213623 6.34624 1.63006 8.15945 4.1476 8.15945H4.19634H4.19657ZM12.0987 35H19.6004V21.8125C19.6004 21.1068 19.6491 20.4017 19.8472 19.8972C20.3896 18.4871 21.6239 17.0266 23.6962 17.0266C26.4108 17.0266 27.4967 19.1921 27.4967 22.3666V34.9998H34.998V21.4595C34.998 14.2061 31.297 10.8311 26.3613 10.8311C22.3145 10.8311 20.5376 13.1979 19.5505 14.8099H19.6006V11.385H12.0988C12.1973 13.6009 12.0988 34.9995 12.0988 34.9995L12.0987 35Z" fill="#F8F8F8"/>
</svg>
