<svg width="218" height="33" viewBox="0 0 218 33" fill="none" xmlns="http://www.w3.org/2000/svg">
<path fill-rule="evenodd" clip-rule="evenodd" d="M4.0332 0.341797H2.66602H0.991211H0V15.2246H3.11853L2.83311 5.83729L5.97941 15.2246H8.81025L4.0332 0.341797ZM12.2741 15.2246H15.0821L18.2203 5.88089L17.9362 15.2246H21.0547V0.341797H20.0806H18.3887H17.0386L12.2741 15.2246ZM52.2437 15.2246H49.0991V0.341797H56.0547C57.6725 0.341797 59.0283 0.626628 60.1221 1.19629C61.2272 1.76595 62.0589 2.60905 62.6172 3.72559C63.1868 4.83073 63.4717 6.19222 63.4717 7.81006C63.4717 8.94938 63.2837 9.99186 62.9077 10.9375C62.5317 11.8717 61.9849 12.6693 61.2671 13.3301C60.777 13.7735 60.2151 14.1399 59.5816 14.4293L59.9443 15.2246H56.651L56.6145 15.1416H52.2437V15.2246ZM52.2437 12.4585H56.0205C56.9775 12.4585 57.7751 12.2534 58.4131 11.8433C59.0511 11.4217 59.5296 10.8577 59.8486 10.1514C60.1676 9.44499 60.3271 8.66455 60.3271 7.81006C60.3271 6.85303 60.1847 6.01562 59.8999 5.29785C59.6151 4.58008 59.1593 4.02751 58.5327 3.64014C57.9175 3.24137 57.0915 3.04199 56.0547 3.04199H52.2437V12.4585ZM80.0146 15.2246V15.1074C80.0146 13.6947 79.8893 12.4471 79.6387 11.3647C79.3994 10.2824 79.0234 9.37093 78.5107 8.63037C77.998 7.88981 77.3315 7.33154 76.5112 6.95557C75.6909 6.57959 74.6997 6.3916 73.5376 6.3916C72.6717 6.3916 71.8286 6.55111 71.0083 6.87012C70.188 7.17773 69.4531 7.67904 68.8037 8.37402C68.1543 9.05762 67.6359 9.96338 67.2485 11.0913C66.8727 12.2187 66.6848 13.5964 66.6846 15.2246H68.4619H69.7095H80.0146ZM114.604 15.2246V15.1074C114.604 13.6719 114.422 12.4129 114.058 11.3306C113.693 10.2368 113.18 9.32536 112.52 8.59619C111.87 7.86702 111.112 7.32015 110.247 6.95557C109.381 6.57959 108.441 6.3916 107.427 6.3916C106.436 6.3916 105.507 6.57959 104.641 6.95557C103.775 7.32015 103.018 7.86702 102.368 8.59619C101.719 9.32536 101.212 10.2368 100.847 11.3306C100.483 12.4129 100.3 13.6719 100.3 15.1074V15.2246H103.325V15.1074C103.325 14.0934 103.428 13.2104 103.633 12.4585C103.838 11.6951 104.123 11.0571 104.487 10.5444C104.863 10.0203 105.302 9.63298 105.803 9.38232C106.305 9.12028 106.846 8.98926 107.427 8.98926C108.019 8.98926 108.566 9.12028 109.067 9.38232C109.58 9.63298 110.024 10.0203 110.4 10.5444C110.776 11.0571 111.067 11.6951 111.272 12.4585C111.477 13.2104 111.58 14.0934 111.58 15.1074V15.2246H114.604ZM126.401 15.2246H120.187C120.089 15.1468 119.993 15.0678 119.902 14.9878C119.435 14.5776 119.076 14.1048 118.826 13.5693C118.586 13.0225 118.467 12.3787 118.467 11.6382C118.467 10.8976 118.604 10.214 118.877 9.5874C119.162 8.94938 119.561 8.39111 120.073 7.9126C120.586 7.43408 121.201 7.0638 121.919 6.80176C122.637 6.52832 123.44 6.3916 124.329 6.3916C125.593 6.3916 126.67 6.63656 127.559 7.12646C128.447 7.61637 129.125 8.28857 129.592 9.14307C130.071 9.98617 130.31 10.9375 130.31 11.9971H127.302C127.302 11.4844 127.188 11.0002 126.96 10.5444C126.733 10.0887 126.396 9.71842 125.952 9.43359C125.508 9.13737 124.967 8.98926 124.329 8.98926C123.656 8.98926 123.11 9.10889 122.688 9.34814C122.266 9.5874 121.959 9.90072 121.765 10.2881C121.583 10.6641 121.492 11.0799 121.492 11.5356C121.492 11.8774 121.537 12.1737 121.628 12.4243C121.731 12.6636 121.902 12.8914 122.141 13.1079C122.38 13.313 122.705 13.5295 123.115 13.7573C123.537 13.9738 124.072 14.2244 124.722 14.5093C125.328 14.7464 125.888 14.9848 126.401 15.2246ZM137.71 15.2246H134.702V6.7334H137.71V15.2246ZM146.46 15.2246H143.435V9.16016H140.615V6.7334H143.435V2.23877H146.46V6.7334H149.246V9.16016H146.46V15.2246ZM166.182 15.2246V15.1074C166.182 13.6719 165.999 12.4129 165.635 11.3306C165.27 10.2368 164.757 9.32536 164.097 8.59619C163.447 7.86702 162.69 7.32015 161.824 6.95557C160.958 6.57959 160.018 6.3916 159.004 6.3916C158.013 6.3916 157.084 6.57959 156.218 6.95557C155.352 7.32015 154.595 7.86702 153.945 8.59619C153.296 9.32536 152.789 10.2368 152.424 11.3306C152.06 12.4129 151.877 13.6719 151.877 15.1074V15.2246H154.902V15.1074C154.902 14.0934 155.005 13.2104 155.21 12.4585C155.415 11.6951 155.7 11.0571 156.064 10.5444C156.44 10.0203 156.879 9.63298 157.38 9.38232C157.882 9.12028 158.423 8.98926 159.004 8.98926C159.596 8.98926 160.143 9.12028 160.645 9.38232C161.157 9.63298 161.602 10.0203 161.978 10.5444C162.354 11.0571 162.644 11.6951 162.849 12.4585C163.054 13.2104 163.157 14.0934 163.157 15.1074V15.2246H166.182ZM173.103 15.2246H170.078V6.7334H173L173.066 8.59261C173.423 7.93725 173.862 7.42005 174.385 7.04102C174.977 6.60807 175.684 6.3916 176.504 6.3916C176.686 6.3916 176.908 6.42008 177.17 6.47705C177.444 6.52262 177.62 6.57389 177.7 6.63086L177.717 9.57031C177.467 9.51335 177.239 9.47917 177.034 9.46777C176.84 9.44499 176.612 9.43359 176.35 9.43359C175.78 9.43359 175.279 9.54753 174.846 9.77539C174.425 10.0033 174.06 10.3223 173.752 10.7324C173.491 11.0816 173.274 11.4886 173.103 11.9534V15.2246ZM183.989 15.2246H180.981V6.7334H183.989V15.2246ZM201.523 15.2246V15.1074C201.523 13.6947 201.398 12.4471 201.147 11.3647C200.908 10.2824 200.532 9.37093 200.02 8.63037C199.507 7.88981 198.84 7.33154 198.02 6.95557C197.2 6.57959 196.208 6.3916 195.046 6.3916C194.18 6.3916 193.337 6.55111 192.517 6.87012C191.697 7.17773 190.962 7.67904 190.312 8.37402C189.663 9.05762 189.145 9.96338 188.757 11.0913C188.382 12.2187 188.194 13.5964 188.193 15.2246H189.971H191.218H201.523ZM213.081 15.2246H206.867C206.768 15.1468 206.673 15.0678 206.582 14.9878C206.115 14.5776 205.756 14.1048 205.505 13.5693C205.266 13.0225 205.146 12.3787 205.146 11.6382C205.146 10.8976 205.283 10.214 205.557 9.5874C205.841 8.94938 206.24 8.39111 206.753 7.9126C207.266 7.43408 207.881 7.0638 208.599 6.80176C209.316 6.52832 210.12 6.3916 211.008 6.3916C212.273 6.3916 213.35 6.63656 214.238 7.12646C215.127 7.61637 215.805 8.28857 216.272 9.14307C216.75 9.98617 216.99 10.9375 216.99 11.9971H213.982C213.982 11.4844 213.868 11.0002 213.64 10.5444C213.412 10.0887 213.076 9.71842 212.632 9.43359C212.188 9.13737 211.646 8.98926 211.008 8.98926C210.336 8.98926 209.789 9.10889 209.368 9.34814C208.946 9.5874 208.639 9.90072 208.445 10.2881C208.263 10.6641 208.171 11.0799 208.171 11.5356C208.171 11.8774 208.217 12.1737 208.308 12.4243C208.411 12.6636 208.582 12.8914 208.821 13.1079C209.06 13.313 209.385 13.5295 209.795 13.7573C210.216 13.9738 210.752 14.2244 211.401 14.5093C212.008 14.7464 212.568 14.9848 213.081 15.2246ZM191.237 14.2871H198.499V13.8599C198.453 12.9028 198.322 12.0597 198.105 11.3306C197.9 10.6014 197.559 10.0317 197.08 9.62158C196.602 9.20003 195.924 8.98926 195.046 8.98926C194.488 8.98926 193.97 9.0861 193.491 9.27979C193.024 9.46208 192.62 9.78678 192.278 10.2539C191.947 10.7096 191.685 11.342 191.492 12.1509C191.358 12.7458 191.273 13.4579 191.237 14.2871ZM97.0361 15.2246H94.0112V15.1416C94.0112 14.1162 93.9315 13.2218 93.772 12.4585C93.6239 11.6951 93.3846 11.0628 93.0542 10.5615C92.7238 10.0602 92.3079 9.68425 91.8066 9.43359C91.3053 9.18294 90.7015 9.05762 89.9951 9.05762C89.3913 9.05762 88.8558 9.18294 88.3887 9.43359C87.9329 9.68425 87.5399 10.026 87.2095 10.459C87.0198 10.701 86.8489 10.9636 86.6968 11.2469V15.2246H85.9106H84.9365H83.6719V6.7334H86.4233L86.5779 8.74272C86.5946 8.71646 86.6115 8.69041 86.6284 8.66455C87.1183 7.92399 87.7165 7.36003 88.4229 6.97266C89.1406 6.58529 89.978 6.3916 90.9351 6.3916C91.9263 6.3916 92.7979 6.5625 93.5498 6.9043C94.3131 7.24609 94.9512 7.77588 95.4639 8.49365C95.988 9.20003 96.381 10.1058 96.6431 11.2109C96.9051 12.3047 97.0361 13.6149 97.0361 15.1416V15.2246ZM69.7286 14.2871H76.9897V13.8599C76.9442 12.9028 76.8131 12.0597 76.5967 11.3306C76.3916 10.6014 76.0498 10.0317 75.5713 9.62158C75.0928 9.20003 74.4149 8.98926 73.5376 8.98926C72.9793 8.98926 72.4609 9.0861 71.9824 9.27979C71.5153 9.46208 71.1108 9.78678 70.769 10.2539C70.4386 10.7096 70.1766 11.342 69.9829 12.1509C69.8488 12.7458 69.7641 13.4579 69.7286 14.2871ZM35.239 15.2246H32.3435L34.4531 6.7334H37.666L35.239 15.2246ZM29.8418 15.2246H26.8952L24.3701 6.7334H27.6685L29.8418 15.2246ZM134.958 0.529785C134.674 0.882975 134.531 1.31592 134.531 1.82861C134.531 2.31852 134.674 2.74007 134.958 3.09326C135.243 3.43506 135.671 3.60596 136.24 3.60596C136.81 3.60596 137.237 3.43506 137.522 3.09326C137.818 2.74007 137.966 2.31852 137.966 1.82861C137.966 1.31592 137.818 0.882975 137.522 0.529785C137.237 0.176595 136.81 0 136.24 0C135.671 0 135.243 0.176595 134.958 0.529785ZM181.238 0.529785C180.953 0.882975 180.811 1.31592 180.811 1.82861C180.811 2.31852 180.953 2.74007 181.238 3.09326C181.523 3.43506 181.95 3.60596 182.52 3.60596C183.089 3.60596 183.516 3.43506 183.801 3.09326C184.097 2.74007 184.246 2.31852 184.246 1.82861C184.246 1.31592 184.097 0.882975 183.801 0.529785C183.516 0.176595 183.089 0 182.52 0C181.95 0 181.523 0.176595 181.238 0.529785Z" fill="#171717"/>
<path fill-rule="evenodd" clip-rule="evenodd" d="M0.0169067 15.2246V25.2246H3.14435V15.5176L3.13544 15.2246H0.0169067ZM5.99631 15.2246L9.34796 25.2246H11.7405L15.0991 15.2246H12.291L10.5613 20.6274L8.82715 15.2246H5.99631ZM17.9531 15.2246L17.9442 15.5176V25.2246H21.0716V15.2246H17.9531ZM26.9121 15.2246L29.8358 25.0567L29.2918 26.8994C29.0867 27.6628 28.8361 28.2609 28.5399 28.6938C28.2436 29.1382 27.8847 29.4515 27.4632 29.6338C27.053 29.8275 26.5517 29.9243 25.9593 29.9243C25.8909 29.9243 25.7827 29.9129 25.6346 29.8901C25.4865 29.8787 25.3782 29.8674 25.3099 29.856V32.4194C25.458 32.465 25.6972 32.522 26.0276 32.5903C26.3694 32.6587 26.6486 32.6929 26.8651 32.6929C27.5714 32.6929 28.1867 32.5391 28.7108 32.2314C29.2348 31.9352 29.6849 31.5479 30.0609 31.0693C30.4368 30.5908 30.7444 30.0838 30.9837 29.5483C31.2344 29.0243 31.4337 28.5343 31.5818 28.0786L35.2559 15.2246H32.3604L31.1281 20.1842L29.8587 15.2246H26.9121ZM49.116 15.2246V25.2246H52.2606V15.2246H49.116ZM56.6679 15.2246L61.0618 25.2246H64.4285V25.0195L59.9612 15.2246H56.6679ZM66.7015 15.2246C66.7015 15.2254 66.7015 15.2262 66.7015 15.2271V17.312C66.7015 18.7248 66.8667 19.9495 67.1971 20.9863C67.5275 22.0231 68.006 22.8833 68.6326 23.5669C69.2593 24.2391 70.0169 24.7404 70.9056 25.0708C71.7943 25.4012 72.7912 25.5664 73.8963 25.5664C74.9673 25.5664 75.8844 25.4354 76.6478 25.1733C77.4225 24.8999 78.0719 24.5524 78.596 24.1309C79.1315 23.6979 79.5644 23.2479 79.8948 22.7808L78.3055 20.8838C77.8156 21.499 77.2402 22.006 76.5794 22.4048C75.9186 22.7922 75.0812 22.9858 74.0672 22.9858C73.3722 22.9858 72.7513 22.8776 72.2044 22.6611C71.6689 22.4333 71.2132 22.0915 70.8372 21.6357C70.4726 21.1686 70.1935 20.5819 69.9998 19.8755C69.8175 19.1577 69.7264 18.3032 69.7264 17.312V16.8677H80.0316V15.2246H69.7264H68.4788H66.7015ZM83.6888 15.2246V32.334H86.7137V23.4688C87.1939 24.1396 87.7749 24.6566 88.4568 25.0195C89.1746 25.3841 90.0177 25.5664 90.9861 25.5664C91.9546 25.5664 92.8148 25.3898 93.5667 25.0366C94.3187 24.672 94.951 24.1309 95.4637 23.4131C95.9878 22.6839 96.3808 21.7782 96.6429 20.6958C96.9163 19.6021 97.053 18.326 97.053 16.8677V15.2246H94.0281V16.8677C94.0281 17.8931 93.9484 18.7931 93.7889 19.5679C93.6408 20.3312 93.4015 20.9692 93.0711 21.4819C92.7521 21.9832 92.3419 22.3592 91.8406 22.6099C91.3393 22.8605 90.7412 22.9858 90.0462 22.9858C89.2145 22.9858 88.5252 22.7865 87.9783 22.3877C87.4524 21.996 87.0308 21.4889 86.7137 20.8664V15.2246H85.9276H84.9534H83.6888ZM100.317 15.2246V16.8677C100.317 18.3032 100.499 19.5679 100.864 20.6616C101.229 21.744 101.736 22.6497 102.385 23.3789C103.046 24.1081 103.809 24.6549 104.675 25.0195C105.541 25.3841 106.475 25.5664 107.478 25.5664C108.48 25.5664 109.415 25.3841 110.281 25.0195C111.146 24.6549 111.904 24.1081 112.554 23.3789C113.203 22.6497 113.71 21.744 114.075 20.6616C114.439 19.5679 114.621 18.3032 114.621 16.8677V15.2246H111.596V16.8677C111.596 17.8817 111.511 18.7703 111.34 19.5337C111.169 20.297 110.913 20.9351 110.571 21.4478C110.229 21.9604 109.796 22.3478 109.272 22.6099C108.76 22.8605 108.161 22.9858 107.478 22.9858C106.885 22.9858 106.339 22.8605 105.837 22.6099C105.336 22.3478 104.897 21.9604 104.521 21.4478C104.145 20.9351 103.855 20.297 103.65 19.5337C103.445 18.7703 103.342 17.8817 103.342 16.8677V15.2246H100.317ZM120.204 15.2246C120.613 15.5458 121.087 15.8485 121.628 16.1328C122.312 16.4746 123.081 16.8221 123.935 17.1753C124.813 17.5513 125.508 17.9045 126.02 18.2349C126.544 18.5653 126.92 18.9071 127.148 19.2603C127.376 19.6134 127.49 20.0236 127.49 20.4907C127.49 20.992 127.37 21.4307 127.131 21.8066C126.903 22.1826 126.562 22.4731 126.106 22.6782C125.65 22.8719 125.086 22.9688 124.414 22.9688C123.901 22.9688 123.388 22.8776 122.876 22.6953C122.363 22.513 121.924 22.1826 121.56 21.7041C121.207 21.2256 121.013 20.5534 120.979 19.6875H117.954C117.954 20.7129 118.199 21.6756 118.689 22.5757C119.19 23.4644 119.919 24.1878 120.876 24.7461C121.845 25.293 123.024 25.5664 124.414 25.5664C125.337 25.5664 126.168 25.4468 126.909 25.2075C127.661 24.9569 128.305 24.598 128.84 24.1309C129.376 23.6637 129.786 23.1055 130.071 22.4561C130.367 21.7952 130.515 21.0604 130.515 20.2515C130.515 19.2603 130.293 18.4285 129.848 17.7563C129.404 17.0841 128.755 16.4974 127.9 15.9961C127.459 15.7374 126.965 15.4803 126.418 15.2246H120.204ZM134.719 15.2246V25.2246H137.727V15.2246H134.719ZM143.452 15.2246V20.6274C143.452 21.8579 143.623 22.8377 143.965 23.5669C144.306 24.2847 144.756 24.7974 145.315 25.105C145.873 25.4126 146.477 25.5664 147.126 25.5664C147.65 25.5664 148.083 25.5265 148.425 25.4468C148.767 25.3784 149.04 25.3044 149.245 25.2246L149.263 22.644C149.171 22.6782 149 22.7238 148.75 22.7808C148.499 22.8263 148.271 22.8491 148.066 22.8491C147.793 22.8491 147.536 22.7979 147.297 22.6953C147.058 22.5928 146.859 22.382 146.699 22.063C146.551 21.744 146.477 21.2712 146.477 20.6445V15.2246H143.452ZM151.894 15.2246V16.8677C151.894 18.3032 152.077 19.5679 152.441 20.6616C152.806 21.744 153.313 22.6497 153.962 23.3789C154.623 24.1081 155.386 24.6549 156.252 25.0195C157.118 25.3841 158.052 25.5664 159.055 25.5664C160.058 25.5664 160.992 25.3841 161.858 25.0195C162.724 24.6549 163.481 24.1081 164.131 23.3789C164.78 22.6497 165.287 21.744 165.652 20.6616C166.016 19.5679 166.199 18.3032 166.199 16.8677V15.2246H163.174V16.8677C163.174 17.8817 163.088 18.7703 162.917 19.5337C162.746 20.297 162.49 20.9351 162.148 21.4478C161.806 21.9604 161.374 22.3478 160.849 22.6099C160.337 22.8605 159.739 22.9858 159.055 22.9858C158.463 22.9858 157.916 22.8605 157.414 22.6099C156.913 22.3478 156.474 21.9604 156.098 21.4478C155.722 20.9351 155.432 20.297 155.227 19.5337C155.022 18.7703 154.919 17.8817 154.919 16.8677V15.2246H151.894ZM170.095 15.2246V25.2246H173.12V15.2246H170.095ZM180.998 15.2246V25.2246H184.006V15.2246H180.998ZM188.21 15.2246C188.21 15.2254 188.21 15.2262 188.21 15.2271V17.312C188.21 18.7248 188.375 19.9495 188.706 20.9863C189.036 22.0231 189.515 22.8833 190.141 23.5669C190.768 24.2391 191.526 24.7404 192.414 25.0708C193.303 25.4012 194.3 25.5664 195.405 25.5664C196.476 25.5664 197.393 25.4354 198.157 25.1733C198.931 24.8999 199.581 24.5524 200.105 24.1309C200.64 23.6979 201.073 23.2479 201.404 22.7808L199.814 20.8838C199.324 21.499 198.749 22.006 198.088 22.4048C197.427 22.7922 196.59 22.9858 195.576 22.9858C194.881 22.9858 194.26 22.8776 193.713 22.6611C193.178 22.4333 192.722 22.0915 192.346 21.6357C191.981 21.1686 191.702 20.5819 191.509 19.8755C191.326 19.1577 191.235 18.3032 191.235 17.312V16.8677H201.54V15.2246H191.235H189.988H188.21ZM206.884 15.2246C207.292 15.5458 207.767 15.8485 208.308 16.1328C208.992 16.4746 209.761 16.8221 210.615 17.1753C211.492 17.5513 212.187 17.9045 212.7 18.2349C213.224 18.5653 213.6 18.9071 213.828 19.2603C214.056 19.6134 214.17 20.0236 214.17 20.4907C214.17 20.992 214.05 21.4307 213.811 21.8066C213.583 22.1826 213.241 22.4731 212.785 22.6782C212.33 22.8719 211.766 22.9688 211.094 22.9688C210.581 22.9688 210.068 22.8776 209.555 22.6953C209.043 22.513 208.604 22.1826 208.24 21.7041C207.886 21.2256 207.693 20.5534 207.659 19.6875H204.634C204.634 20.7129 204.879 21.6756 205.368 22.5757C205.87 23.4644 206.599 24.1878 207.556 24.7461C208.524 25.293 209.704 25.5664 211.094 25.5664C212.016 25.5664 212.848 25.4468 213.589 25.2075C214.341 24.9569 214.984 24.598 215.52 24.1309C216.055 23.6637 216.465 23.1055 216.75 22.4561C217.047 21.7952 217.195 21.0604 217.195 20.2515C217.195 19.2603 216.972 18.4285 216.528 17.7563C216.084 17.0841 215.434 16.4974 214.58 15.9961C214.139 15.7374 213.645 15.4803 213.098 15.2246H206.884Z" fill="#20CC76"/>
</svg>
